# xmcd
#
# Track frame offsets:
#	150
#	14775
#	32775
#	54825
#
# Disc length: 926 seconds
#
# Revision: 1
# Processed by: cddbd v1.5.1PL2 Copyright (c) Steve Scherf et al.
# Submitted via: audiograbber 1.83.01
#
DISCID=2c039c04
DTITLE=FLAMINGOSI - Razum i osecajnost
DYEAR=2005
DGENRE=Pop/Funk
TTITLE0=Ljubav
TTITLE1=Obala
TTITLE2=Ruska
TTITLE3=Istina
EXTD=
EXTT0=
EXTT1=
EXTT2=
EXTT3=
PLAYORDER=
